<?xml version="1.0" encoding="UTF-8"?>
<svg xmlns="http://www.w3.org/2000/svg" version="1.1" width="100" height="100" viewBox="0 0 100 100"><rect x="0" y="0" width="100" height="100" fill="#ffffff"/><g transform="scale(4.762)"><g transform="translate(0,0)"><defs><linearGradient gradientUnits="userSpaceOnUse" x1="0" y1="0" x2="0" y2="21" id="g1"><stop offset="0%" stop-color="#191938"/><stop offset="100%" stop-color="#3a4e60"/></linearGradient></defs><path fill-rule="evenodd" d="M12 0L12 2L11 2L11 1L10 1L10 4L9 4L9 3L8 3L8 5L9 5L9 6L8 6L8 7L9 7L9 6L10 6L10 7L11 7L11 6L12 6L12 7L13 7L13 6L12 6L12 5L13 5L13 0ZM11 3L11 4L10 4L10 6L11 6L11 5L12 5L12 3ZM0 8L0 12L1 12L1 11L2 11L2 13L4 13L4 12L6 12L6 13L8 13L8 16L9 16L9 19L8 19L8 21L9 21L9 19L11 19L11 20L12 20L12 21L13 21L13 20L15 20L15 21L16 21L16 19L17 19L17 21L19 21L19 19L20 19L20 20L21 20L21 18L19 18L19 17L20 17L20 16L21 16L21 15L19 15L19 16L18 16L18 17L17 17L17 15L14 15L14 14L13 14L13 13L17 13L17 14L19 14L19 11L18 11L18 10L19 10L19 9L18 9L18 8L16 8L16 10L14 10L14 9L12 9L12 8L11 8L11 9L9 9L9 10L5 10L5 9L8 9L8 8L5 8L5 9L4 9L4 10L1 10L1 9L2 9L2 8ZM17 9L17 10L16 10L16 11L15 11L15 12L16 12L16 11L17 11L17 10L18 10L18 9ZM20 9L20 13L21 13L21 9ZM11 10L11 11L10 11L10 12L11 12L11 11L12 11L12 10ZM13 10L13 11L14 11L14 10ZM6 11L6 12L7 12L7 11ZM8 12L8 13L9 13L9 12ZM11 13L11 14L9 14L9 16L10 16L10 18L11 18L11 16L12 16L12 17L13 17L13 16L14 16L14 17L15 17L15 18L14 18L14 19L15 19L15 18L16 18L16 17L15 17L15 16L14 16L14 15L13 15L13 14L12 14L12 13ZM11 14L11 15L12 15L12 14ZM17 18L17 19L19 19L19 18ZM0 0L0 7L7 7L7 0ZM1 1L1 6L6 6L6 1ZM2 2L2 5L5 5L5 2ZM14 0L14 7L21 7L21 0ZM15 1L15 6L20 6L20 1ZM16 2L16 5L19 5L19 2ZM0 14L0 21L7 21L7 14ZM1 15L1 20L6 20L6 15ZM2 16L2 19L5 19L5 16Z" fill="url(#g1)"/></g></g></svg>
