<?xml version="1.0" encoding="UTF-8"?>
<svg xmlns="http://www.w3.org/2000/svg" version="1.1" width="100" height="100" viewBox="0 0 100 100"><rect x="0" y="0" width="100" height="100" fill="#ffffff"/><g transform="scale(4.762)"><g transform="translate(0,0)"><defs><linearGradient gradientUnits="userSpaceOnUse" x1="0" y1="0" x2="0" y2="21" id="g1"><stop offset="0%" stop-color="#191938"/><stop offset="100%" stop-color="#3a4e60"/></linearGradient></defs><path fill-rule="evenodd" d="M10 0L10 1L8 1L8 2L10 2L10 3L8 3L8 4L9 4L9 5L8 5L8 7L9 7L9 8L6 8L6 9L9 9L9 10L8 10L8 11L7 11L7 10L5 10L5 11L4 11L4 9L5 9L5 8L0 8L0 9L1 9L1 10L0 10L0 11L1 11L1 13L3 13L3 12L5 12L5 13L7 13L7 12L9 12L9 13L8 13L8 15L10 15L10 16L11 16L11 17L10 17L10 18L12 18L12 19L10 19L10 20L9 20L9 16L8 16L8 21L10 21L10 20L12 20L12 21L13 21L13 20L15 20L15 21L17 21L17 20L16 20L16 19L19 19L19 17L20 17L20 15L17 15L17 14L19 14L19 12L18 12L18 13L17 13L17 11L16 11L16 8L15 8L15 9L14 9L14 8L13 8L13 9L12 9L12 8L11 8L11 10L10 10L10 9L9 9L9 8L10 8L10 7L11 7L11 6L12 6L12 7L13 7L13 6L12 6L12 5L13 5L13 0ZM11 1L11 2L12 2L12 1ZM10 3L10 5L9 5L9 7L10 7L10 6L11 6L11 5L12 5L12 3ZM17 8L17 9L18 9L18 10L19 10L19 11L21 11L21 10L20 10L20 8L19 8L19 9L18 9L18 8ZM2 9L2 10L3 10L3 9ZM9 10L9 11L10 11L10 10ZM11 10L11 11L12 11L12 10ZM13 10L13 11L14 11L14 10ZM2 11L2 12L3 12L3 11ZM6 11L6 12L7 12L7 11ZM11 12L11 14L12 14L12 15L11 15L11 16L12 16L12 17L13 17L13 16L14 16L14 17L15 17L15 18L18 18L18 17L19 17L19 16L18 16L18 17L17 17L17 15L16 15L16 17L15 17L15 13L16 13L16 14L17 14L17 13L16 13L16 12L13 12L13 14L12 14L12 12ZM20 12L20 13L21 13L21 12ZM9 13L9 14L10 14L10 13ZM13 14L13 15L14 15L14 14ZM13 18L13 19L14 19L14 18ZM20 19L20 20L21 20L21 19ZM18 20L18 21L19 21L19 20ZM0 0L0 7L7 7L7 0ZM1 1L1 6L6 6L6 1ZM2 2L2 5L5 5L5 2ZM14 0L14 7L21 7L21 0ZM15 1L15 6L20 6L20 1ZM16 2L16 5L19 5L19 2ZM0 14L0 21L7 21L7 14ZM1 15L1 20L6 20L6 15ZM2 16L2 19L5 19L5 16Z" fill="url(#g1)"/></g></g></svg>
