<?xml version="1.0" encoding="UTF-8"?>
<svg xmlns="http://www.w3.org/2000/svg" version="1.1" width="100" height="100" viewBox="0 0 100 100"><rect x="0" y="0" width="100" height="100" fill="#ffffff"/><g transform="scale(4.762)"><g transform="translate(0,0)"><defs><linearGradient gradientUnits="userSpaceOnUse" x1="0" y1="0" x2="0" y2="21" id="g1"><stop offset="0%" stop-color="#191938"/><stop offset="100%" stop-color="#3a4e60"/></linearGradient></defs><path fill-rule="evenodd" d="M8 0L8 4L12 4L12 5L11 5L11 6L10 6L10 5L8 5L8 7L9 7L9 9L7 9L7 8L4 8L4 9L2 9L2 8L0 8L0 9L1 9L1 10L2 10L2 11L4 11L4 12L3 12L3 13L4 13L4 12L5 12L5 10L6 10L6 11L7 11L7 12L6 12L6 13L7 13L7 12L8 12L8 11L10 11L10 10L11 10L11 11L12 11L12 10L13 10L13 9L12 9L12 8L13 8L13 6L12 6L12 5L13 5L13 4L12 4L12 3L9 3L9 1L10 1L10 2L11 2L11 1L12 1L12 2L13 2L13 0ZM9 6L9 7L10 7L10 6ZM11 6L11 7L12 7L12 6ZM10 8L10 9L9 9L9 10L10 10L10 9L11 9L11 8ZM15 8L15 9L16 9L16 8ZM17 8L17 9L18 9L18 10L14 10L14 11L13 11L13 12L12 12L12 15L10 15L10 14L11 14L11 12L10 12L10 13L8 13L8 14L9 14L9 15L8 15L8 17L9 17L9 19L8 19L8 21L9 21L9 20L10 20L10 21L11 21L11 20L10 20L10 17L9 17L9 16L11 16L11 19L12 19L12 18L13 18L13 17L12 17L12 16L13 16L13 15L14 15L14 14L16 14L16 16L17 16L17 18L18 18L18 19L17 19L17 21L21 21L21 19L20 19L20 20L18 20L18 19L19 19L19 18L21 18L21 16L20 16L20 15L18 15L18 14L17 14L17 13L18 13L18 12L19 12L19 11L20 11L20 10L19 10L19 9L21 9L21 8ZM6 9L6 10L7 10L7 11L8 11L8 10L7 10L7 9ZM18 10L18 11L19 11L19 10ZM15 11L15 13L17 13L17 11ZM1 12L1 13L2 13L2 12ZM20 12L20 14L21 14L21 12ZM14 16L14 17L15 17L15 16ZM19 16L19 17L18 17L18 18L19 18L19 17L20 17L20 16ZM14 18L14 19L13 19L13 20L12 20L12 21L15 21L15 20L16 20L16 19L15 19L15 18ZM0 0L0 7L7 7L7 0ZM1 1L1 6L6 6L6 1ZM2 2L2 5L5 5L5 2ZM14 0L14 7L21 7L21 0ZM15 1L15 6L20 6L20 1ZM16 2L16 5L19 5L19 2ZM0 14L0 21L7 21L7 14ZM1 15L1 20L6 20L6 15ZM2 16L2 19L5 19L5 16Z" fill="url(#g1)"/></g></g></svg>
