<?xml version="1.0" encoding="UTF-8"?>
<svg xmlns="http://www.w3.org/2000/svg" version="1.1" width="100" height="100" viewBox="0 0 100 100"><rect x="0" y="0" width="100" height="100" fill="#ffffff"/><g transform="scale(4.762)"><g transform="translate(0,0)"><defs><linearGradient gradientUnits="userSpaceOnUse" x1="0" y1="0" x2="0" y2="21" id="g1"><stop offset="0%" stop-color="#191938"/><stop offset="100%" stop-color="#3a4e60"/></linearGradient></defs><path fill-rule="evenodd" d="M12 0L12 2L11 2L11 1L10 1L10 4L9 4L9 3L8 3L8 5L9 5L9 6L8 6L8 7L9 7L9 6L10 6L10 7L11 7L11 6L12 6L12 7L13 7L13 6L12 6L12 5L13 5L13 0ZM11 3L11 4L10 4L10 6L11 6L11 5L12 5L12 3ZM0 8L0 11L1 11L1 13L5 13L5 12L6 12L6 13L7 13L7 12L6 12L6 11L8 11L8 10L5 10L5 9L8 9L8 8L5 8L5 9L4 9L4 10L2 10L2 8ZM11 8L11 10L12 10L12 11L9 11L9 12L8 12L8 16L9 16L9 17L10 17L10 19L8 19L8 21L9 21L9 20L10 20L10 19L11 19L11 20L12 20L12 21L13 21L13 20L15 20L15 19L16 19L16 18L18 18L18 19L17 19L17 20L16 20L16 21L17 21L17 20L18 20L18 21L19 21L19 19L20 19L20 20L21 20L21 18L19 18L19 17L20 17L20 16L21 16L21 15L19 15L19 14L18 14L18 12L20 12L20 14L21 14L21 10L20 10L20 9L18 9L18 8L16 8L16 10L14 10L14 9L12 9L12 8ZM17 9L17 10L16 10L16 12L18 12L18 11L17 11L17 10L18 10L18 9ZM4 10L4 12L5 12L5 10ZM13 10L13 11L14 11L14 10ZM2 11L2 12L3 12L3 11ZM10 13L10 14L12 14L12 15L10 15L10 16L12 16L12 17L13 17L13 16L14 16L14 17L15 17L15 16L16 16L16 17L19 17L19 16L17 16L17 15L18 15L18 14L17 14L17 13L13 13L13 14L12 14L12 13ZM13 14L13 15L14 15L14 16L15 16L15 15L17 15L17 14L15 14L15 15L14 15L14 14ZM14 18L14 19L15 19L15 18ZM0 0L0 7L7 7L7 0ZM1 1L1 6L6 6L6 1ZM2 2L2 5L5 5L5 2ZM14 0L14 7L21 7L21 0ZM15 1L15 6L20 6L20 1ZM16 2L16 5L19 5L19 2ZM0 14L0 21L7 21L7 14ZM1 15L1 20L6 20L6 15ZM2 16L2 19L5 19L5 16Z" fill="url(#g1)"/></g></g></svg>
