<?xml version="1.0" encoding="UTF-8"?>
<svg xmlns="http://www.w3.org/2000/svg" version="1.1" width="100" height="100" viewBox="0 0 100 100"><rect x="0" y="0" width="100" height="100" fill="#ffffff"/><g transform="scale(4.762)"><g transform="translate(0,0)"><defs><linearGradient gradientUnits="userSpaceOnUse" x1="0" y1="0" x2="0" y2="21" id="g1"><stop offset="0%" stop-color="#191938"/><stop offset="100%" stop-color="#3a4e60"/></linearGradient></defs><path fill-rule="evenodd" d="M10 0L10 1L8 1L8 2L10 2L10 3L8 3L8 4L9 4L9 5L8 5L8 7L9 7L9 8L6 8L6 9L8 9L8 10L9 10L9 8L10 8L10 7L11 7L11 6L12 6L12 7L13 7L13 6L12 6L12 5L13 5L13 0ZM11 1L11 2L12 2L12 1ZM10 3L10 5L9 5L9 7L10 7L10 6L11 6L11 5L12 5L12 3ZM0 8L0 10L1 10L1 11L0 11L0 12L1 12L1 11L2 11L2 13L8 13L8 15L9 15L9 16L8 16L8 21L10 21L10 20L12 20L12 21L13 21L13 20L15 20L15 21L16 21L16 20L15 20L15 19L16 19L16 18L19 18L19 17L20 17L20 15L17 15L17 14L19 14L19 12L18 12L18 11L19 11L19 9L20 9L20 8L19 8L19 9L18 9L18 8L17 8L17 9L18 9L18 10L17 10L17 11L16 11L16 8L15 8L15 9L14 9L14 8L13 8L13 9L12 9L12 8L11 8L11 9L10 9L10 11L11 11L11 12L12 12L12 14L10 14L10 13L8 13L8 12L9 12L9 11L7 11L7 10L5 10L5 12L3 12L3 11L4 11L4 10L1 10L1 9L5 9L5 8ZM11 10L11 11L12 11L12 10ZM13 10L13 11L14 11L14 10ZM20 10L20 14L21 14L21 10ZM6 11L6 12L7 12L7 11ZM13 12L13 14L12 14L12 15L10 15L10 14L9 14L9 15L10 15L10 16L9 16L9 17L10 17L10 18L9 18L9 19L12 19L12 18L11 18L11 17L10 17L10 16L12 16L12 17L13 17L13 16L14 16L14 17L15 17L15 14L16 14L16 12ZM13 14L13 15L14 15L14 14ZM16 15L16 17L19 17L19 16L17 16L17 15ZM13 18L13 19L14 19L14 18ZM17 19L17 21L19 21L19 19ZM20 19L20 20L21 20L21 19ZM0 0L0 7L7 7L7 0ZM1 1L1 6L6 6L6 1ZM2 2L2 5L5 5L5 2ZM14 0L14 7L21 7L21 0ZM15 1L15 6L20 6L20 1ZM16 2L16 5L19 5L19 2ZM0 14L0 21L7 21L7 14ZM1 15L1 20L6 20L6 15ZM2 16L2 19L5 19L5 16Z" fill="url(#g1)"/></g></g></svg>
